<?xml version="1.0" encoding="UTF-8" standalone="no"?>
<svg data-name="Layer 1" width="707.46533" height="687.10364" viewBox="0 0 707.46533 687.10361" version="1.1" id="svg35" sodipodi:docname="undraw_documents_re_isxv.svg" inkscape:version="1.3.2 (091e20e, 2023-11-25, custom)" inkscape:export-filename="1undraw_documents_re_isxv.svg" inkscape:export-xdpi="96" inkscape:export-ydpi="96"
   xmlns:inkscape="http://www.inkscape.org/namespaces/inkscape"
   xmlns:sodipodi="http://sodipodi.sourceforge.net/DTD/sodipodi-0.dtd"
   xmlns="http://www.w3.org/2000/svg"
   xmlns:svg="http://www.w3.org/2000/svg">
   <defs id="defs35" />
   <sodipodi:namedview id="namedview35" pagecolor="#505050" bordercolor="#ffffff" borderopacity="1" inkscape:showpageshadow="0" inkscape:pageopacity="0" inkscape:pagecheckerboard="1" inkscape:deskcolor="#505050" inkscape:zoom="1.7953931" inkscape:cx="415.78638" inkscape:cy="396.29204" inkscape:window-width="3000" inkscape:window-height="1911" inkscape:window-x="-9" inkscape:window-y="-9" inkscape:window-maximized="1" inkscape:current-layer="svg35" />
   <path d="m 500.73499,444.99735 h -44.84693 a 8.7469581,8.7469581 0 0 1 -8.73711,-8.7371 V 256.8926 a 8.7469581,8.7469581 0 0 1 8.73711,-8.7371 h 121.64153 l 22.26374,19.87857 v 36.14169 h -1.0279 v -35.68145 l -21.62807,-19.31092 h -121.2493 a 7.717948,7.717948 0 0 0 -7.70921,7.70921 v 179.36765 a 7.717948,7.717948 0 0 0 7.70921,7.70921 h 44.84693 z" fill="#cccccc" id="path11" style="stroke-width:0.513947" />
   <path d="M 599.27938,268.71339 H 585.4028 a 8.7469581,8.7469581 0 0 1 -8.73711,-8.7371 v -11.30684 a 0.51395,0.51395 0 1 1 1.0279,0 v 11.30684 a 7.717948,7.717948 0 0 0 7.70921,7.70921 h 13.87658 a 0.5139475,0.5139475 0 0 1 0,1.02789 z" fill="#cccccc" id="path12" style="stroke-width:0.513947" />
   <path d="m 582.08272,294.66774 h -117.18 a 4.11158,4.11158 0 0 0 0,8.22316 h 117.18 a 4.11158,4.11158 0 0 0 0,-8.22316 z" fill="#e6e6e6" id="path13" style="stroke-width:0.513947" />
   <path d="m 522.97877,277.19353 h -58.07605 a 4.1115791,4.1115791 0 0 0 0,8.22315 h 58.07605 a 4.1115791,4.1115791 0 0 0 0,-8.22315 z" fill="#e6e6e6" id="path14" style="stroke-width:0.513947" />
   <path d="m 464.90272,329.10221 a 4.11158,4.11158 0 0 0 0,8.22316 h 36.72668 v -8.22316 z" fill="#e6e6e6" id="path15" style="stroke-width:0.513947" />
   <path d="m 464.90272,311.628 a 4.11158,4.11158 0 1 0 0,8.22316 H 501.6294 V 311.628 Z" fill="#e6e6e6" id="path16" style="stroke-width:0.513947" />
   <path d="m 501.88635,416.2163 h -32.91319 a 8.4897274,8.4897274 0 0 1 -8.48013,-8.48013 v -43.17159 a 8.4897325,8.4897325 0 0 1 8.48013,-8.48013 h 32.91319 z" fill="#e6e6e6" id="path17" style="stroke-width:0.513947" />
   <path d="m 554.95644,500.2467 h -44.84693 a 8.7469581,8.7469581 0 0 1 -8.73711,-8.73711 V 312.14195 a 8.7469581,8.7469581 0 0 1 8.73711,-8.73711 h 121.64153 l 22.26374,19.87857 v 34.08591 h -1.0279 v -33.62566 l -21.62807,-19.31092 h -121.2493 a 7.717948,7.717948 0 0 0 -7.70921,7.70921 v 179.36764 a 7.717948,7.717948 0 0 0 7.70921,7.70921 h 44.84693 z" fill="#cccccc" id="path18" style="stroke-width:0.513947" />
   <path d="m 653.50083,323.96274 h -13.87658 a 8.7469581,8.7469581 0 0 1 -8.73711,-8.73711 v -11.30684 a 0.51395,0.51395 0 1 1 1.0279,0 v 11.30684 a 7.717948,7.717948 0 0 0 7.70921,7.70921 h 13.87658 a 0.51395,0.51395 0 0 1 0,1.0279 z" fill="#cccccc" id="path19" style="stroke-width:0.513947" />
   <path d="m 636.30417,349.91708 h -117.18 a 4.11158,4.11158 0 0 0 0,8.22316 h 117.18 a 4.11158,4.11158 0 0 0 0,-8.22316 z" fill="#e6e6e6" id="path20" style="stroke-width:0.513947" />
   <path d="m 577.20022,332.44287 h -58.07605 a 4.11158,4.11158 0 0 0 0,8.22316 h 58.07605 a 4.11158,4.11158 0 0 0 0,-8.22316 z" fill="#e6e6e6" id="path21" style="stroke-width:0.513947" />
   <path d="m 636.30417,349.91708 h -117.18 a 4.11158,4.11158 0 0 0 0,8.22316 h 117.18 a 4.11158,4.11158 0 0 0 0,-8.22316 z" fill="#e6e6e6" id="path22" style="stroke-width:0.513947" />
   <path d="m 577.20022,332.44287 h -58.07605 a 4.11158,4.11158 0 0 0 0,8.22316 h 58.07605 a 4.11158,4.11158 0 0 0 0,-8.22316 z" fill="#e6e6e6" id="path23" style="stroke-width:0.513947" />
   <path d="m 519.12417,384.35156 a 4.11158,4.11158 0 0 0 0,8.22316 h 36.72667 v -8.22316 z" fill="#e6e6e6" id="path24" style="stroke-width:0.513947" />
   <path d="m 519.12417,366.87735 a 4.11158,4.11158 0 0 0 0,8.22316 h 36.72667 v -8.22316 z" fill="#e6e6e6" id="path25" style="stroke-width:0.513947" />
   <path d="m 519.12417,384.35156 a 4.11158,4.11158 0 0 0 0,8.22316 h 36.72667 v -8.22316 z" fill="#e6e6e6" id="path26" style="stroke-width:0.513947" />
   <path d="m 519.12417,366.87735 a 4.11158,4.11158 0 0 0 0,8.22316 h 36.72667 v -8.22316 z" fill="#e6e6e6" id="path27" style="stroke-width:0.513947" />
   <path d="m 556.1078,471.46564 h -32.91319 a 8.4897274,8.4897274 0 0 1 -8.48013,-8.48013 v -43.17158 a 8.4897325,8.4897325 0 0 1 8.48013,-8.48013 h 32.91319 z" fill="#e6e6e6" id="path28" style="stroke-width:0.513947" />
   <path d="m 559.00653,359.16814 a 8.7340683,8.7340683 0 0 0 -4.1836,7.45223 v 1.28487 h 1.02789 v -1.28487 a 7.7231954,7.7231954 0 0 1 5.73047,-7.45223 z m 126.19465,-1.28487 H 563.56003 a 8.7473281,8.7473281 0 0 0 -8.7371,8.7371 v 179.36764 a 8.7494918,8.7494918 0 0 0 8.7371,8.73711 H 698.7282 a 8.7494918,8.7494918 0 0 0 8.7371,-8.73711 V 377.76275 Z m 21.23621,188.10474 a 7.7186059,7.7186059 0 0 1 -7.70921,7.70922 H 563.56001 a 7.7186059,7.7186059 0 0 1 -7.70921,-7.70922 V 366.62037 a 7.7231954,7.7231954 0 0 1 5.73047,-7.45223 7.6232018,7.6232018 0 0 1 1.97874,-0.25698 h 121.25045 l 21.62695,19.30901 z M 559.00651,359.16814 a 8.7340683,8.7340683 0 0 0 -4.1836,7.45223 v 1.28487 h 1.02789 v -1.28487 a 7.7231954,7.7231954 0 0 1 5.73047,-7.45223 z" fill="#3f3d56" id="path29" style="stroke-width:0.513947" />
   <path d="m 706.95136,378.44116 h -13.87658 a 8.7469581,8.7469581 0 0 1 -8.73711,-8.7371 v -11.30684 a 0.51395,0.51395 0 0 1 1.0279,0 v 11.30684 a 7.717948,7.717948 0 0 0 7.70921,7.70921 h 13.87658 a 0.51394739,0.51394739 0 0 1 0,1.02789 z" fill="#3f3d56" id="path30" style="stroke-width:0.513947" />
   <path d="m 689.75538,412.61867 h -117.18 a 4.11158,4.11158 0 1 1 0,-8.22316 h 117.18 a 4.11158,4.11158 0 0 1 0,8.22316 z" fill="#cccccc" id="path31" style="stroke-width:0.513947" />
   <path d="m 630.65143,395.14445 h -58.07605 a 4.1115791,4.1115791 0 1 1 0,-8.22315 h 58.07605 a 4.1115791,4.1115791 0 0 1 0,8.22315 z" fill="#cccccc" id="path32" style="stroke-width:0.513947" />
   <path d="m 689.75538,447.05314 h -117.18 a 4.11158,4.11158 0 1 1 0,-8.22316 h 117.18 a 4.11158,4.11158 0 0 1 0,8.22316 z" fill="#cccccc" id="path33" style="stroke-width:0.513947" />
   <path d="m 630.65143,429.57893 h -58.07605 a 4.11158,4.11158 0 1 1 0,-8.22316 h 58.07605 a 4.11158,4.11158 0 0 1 0,8.22316 z" fill="#cccccc" id="path34" style="stroke-width:0.513947" />
   <path d="M 685.60133,525.94407 H 576.64449 a 8.4897274,8.4897274 0 0 1 -8.48013,-8.48014 v -43.17158 a 8.4897325,8.4897325 0 0 1 8.48013,-8.48013 h 108.95684 a 8.4897274,8.4897274 0 0 1 8.48014,8.48013 v 43.17158 a 8.4897222,8.4897222 0 0 1 -8.48014,8.48014 z" fill="#008243" id="path35" style="stroke-width:0.513947" />
   <path d="m 518.76803,609.27178 c -0.16211,0 -0.3252,-9.8e-4 -0.48779,-0.003 L 88.319302,604.24834 C 63.881312,603.93291 44.197722,583.83916 44.369592,559.42217 14.015102,458.72881 0.64059189,379.43682 1.0063219,302.346 1.3881519,221.88311 17.285612,140.03399 51.033662,44.77911 51.425752,20.5252 71.312962,0.99589995 95.540982,0.99589995 c 0.15674,0 0.31348,9.8e-4 0.47021,0.002 L 525.9731,6.02817 c 24.49365,0.31592 44.20361,20.49414 43.93799,44.98047 v 9.8e-4 l -0.87012,74.57861 -0.64648,0.007 -5.1333,439.73438 c -0.31445,24.33052 -20.22754,43.94185 -44.49316,43.94185 z M 95.540502,2.9959 c -23.19336,0 -42.21875,18.73584 -42.50928,41.9751 l -0.002,0.16553 -0.0557,0.15576 c -64.44722,181.82764 -66.18648,316.25293 -6.64498,513.69726 l 0.0439,0.14648 -10e-4,0.15332 c -0.24365,23.38574 18.58496,42.65723 41.97266,42.95898 l 429.958978,5.02051 c 0.15527,0.002 0.31104,0.003 0.46631,0.003 23.17383,0 42.19189,-18.72949 42.49219,-41.96582 l 4.73975,-405.83936 0.0205,-1.99854 0.5498,-46.40479 0.63818,-0.005 0.70166,-60.07129 C 568.16543,27.60183 549.34072,8.33035 525.94912,8.02859 L 95.989642,2.99834 c -0.14844,-10e-4 -0.30078,-0.002 -0.44873,-0.002 z" fill="#b0ffc9" id="path1" />
   <polygon points="234.94119,429.07839 480.5712,429.07839 480.54123,431.07839 234.94119,431.07839 " fill="#b0ffc9" id="polygon1" transform="translate(1.8857942e-6,2.9950127e-5)" />
   <polygon points="234.94119,386.57839 481.06125,386.57839 481.04123,388.57839 234.94119,388.57839 " fill="#b0ffc9" id="polygon2" transform="translate(1.8857942e-6,2.9950127e-5)" />
   <polygon points="234.94119,344.07839 481.56125,344.07839 481.54123,346.07839 234.94119,346.07839 " fill="#b0ffc9" id="polygon3" transform="translate(1.8857942e-6,2.9950127e-5)" />
   <path d="m 480.02121,475.47839 -0.02,2 h -250.54 V 267.57843 l 2,0.02 v 125.61005 c 0,12.85999 2.95001,25.02997 8.21002,35.87 0.32996,0.66998 0.65997,1.33997 1.01001,2 13.69995,26.38 41.27997,44.39996 73.06,44.39996 h 166.27997 z" fill="#b0ffc9" id="path3" />
   <path d="M 132.58238,579.82797 C 108.59034,579.52028 89.374992,559.85057 89.628142,535.85773 32.487912,346.38064 28.909472,211.63685 96.282172,21.53911 96.416912,13.97383 98.547652,6.57872 102.45845,0.10176995 l -8.460838,-0.0993 c -23.99243,-0.253 -43.66255,18.96221005 -43.97107,42.95394005 -67.37284,190.09816 -63.79426,324.84153 -6.65403,514.31863 -0.25356,23.99269 18.96221,43.66255 42.95424,43.97024 l 429.961308,5.02646 c 15.54682,0.12885 29.97016,-8.08199 37.79479,-21.5166 z" fill="#b0ffc9" isolation="isolate" id="path4" />
   <path d="m 196.55696,353.23891 c 0.6856,4.30491 -2.82372,8.31798 -7.1811,8.19386 l -14.46131,32.59311 -9.99866,-1.78348 17.45895,-38.58576 c 0.28542,-3.21303 2.7268,-5.93561 6.05818,-6.43248 3.90418,-0.58248 7.54137,2.11042 8.12394,6.01475 z" fill="#ffb6b6" id="path5" />
   <path d="m 118.2894,453.37378 2e-5,2e-5 c 4.12695,4.26864 10.81252,4.72764 15.48413,1.06307 l 34.21524,-26.83962 16.95234,-52.7164 -12.32518,-5.70097 -23.15567,46.18241 -29.44659,20.43585 c -5.87041,4.07405 -6.69101,12.43841 -1.72429,17.57566 z" fill="#008243" id="path6" />
   <path d="m 125.73123,435.06841 c -0.89001,-0.60999 -1.84003,-1.15002 -2.82001,-1.60999 0.02,-0.26001 0.03,-0.53003 0.03,-0.79004 0.05,-2.63 -0.46997,-5.26001 -1.52997,-7.66998 0.14001,2.12 -0.51001,4.28003 -1.78998,5.97003 -0.22003,0.29999 -0.46002,0.57996 -0.72003,0.84998 -0.07,0.07 -0.14001,0.14001 -0.21002,0.20001 -1.40997,-0.32001 -2.87,-0.47003 -4.31995,-0.45001 -1.61005,0.03 -3.21002,0.25 -4.80005,0.56 -1.98999,0.38 -3.96997,0.90997 -5.94995,1.34998 -0.12006,0.03 -0.23004,0.05 -0.35004,0.08 -0.90997,-2.46997 -2.33997,-4.72998 -4.200008,-6.58997 0.89001,1.91998 1.070008,4.16998 0.49005,6.20996 -0.10004,0.35999 -0.22003,0.71002 -0.37006,1.04999 -2.15997,0.22003 -4.31995,0.16003 -6.38995,-0.44 -0.88,-0.25 -1.71002,-0.58997 -2.52002,-0.98999 -2.85999,-1.39996 -5.44,-3.47998 -8.39001,-4.72998 -1.58997,-0.67999 -3.26996,-1.09998 -4.98999,-1.27002 -1.44,-8.25 -1.03998,-15.57001 3.38,-20.85999 0,-12.07001 9.78998,-21.85999 21.859988,-21.85999 l 10.02002,3.47998 10.12,3.52002 c 4.76001,12.70001 12.33002,23.88 3.45001,43.98999 z" fill="#2f2e41" id="path7" />
   <g id="g8" transform="translate(1.8857942e-6,2.9950127e-5)">
      <polygon points="154.68009,636.68779 141.86317,663.71402 148.71723,666.96448 164.79604,641.48516 " fill="#ffb6b6" id="polygon7" />
      <path d="m 158.34168,682.01795 -7.31896,-12.67829 2.32612,-4.90487 -2.42065,-0.97918 -7.51003,-3.02079 -1.83913,-0.74488 -9.65983,16.63832 5.14357,2.43525 3.21845,-4.41779 0.0421,5.96753 13.62704,6.46389 c 1.69373,0.80171 3.71838,0.0749 4.51774,-1.61235 0.47723,-1.0059 0.42999,-2.18135 -0.12641,-3.14684 z" fill="#2f2e41" id="path8" />
   </g>
   <g id="g9" transform="translate(1.8857942e-6,2.9950127e-5)">
      <polygon points="222.34791,545.11482 243.08351,566.67231 248.55064,561.4136 230.41688,537.35345 " fill="#ffb6b6" id="polygon8" />
      <path d="m 266.03696,557.74403 -14.44859,2.35465 -3.7632,-3.9124 -1.77299,1.917 -5.48466,5.9535 -1.34792,1.45614 12.139,14.92618 4.099,-3.94778 -2.99167,-4.57441 5.59568,2.07402 10.87093,-10.45471 c 1.34958,-1.30004 1.38694,-3.45085 0.0921,-4.79596 -0.7717,-0.80253 -1.88769,-1.17464 -2.98766,-0.99623 z" fill="#2f2e41" id="path9" />
   </g>
   <path d="m 127.28122,523.07842 -27,-6 0.1811,8.21464 c 0,0 -28.181098,21.78536 -2.181098,42.78536 25.999998,21 69.999998,23 69.999998,23 l -20,58 10,4 39.37269,-53.76818 c 5.3016,-9.63961 3.80294,-21.78626 -4.09491,-29.44478 -1.52778,-1.48148 -3.27778,-2.78704 -5.27778,-3.78704 -12,-6 -44,-18 -44,-18 l -16,-16 z" fill="#2f2e41" id="path10" />
   <path d="m 126.28122,538.07842 55.45635,-35.2904 c 6.2227,-3.9599 14.32725,-3.25767 19.77611,1.71353 l 41.76755,45.57687 -11,9 -43,-30 c 0,0 -25,28 -32,28 -7,0 -31,-19 -31,-19 z" fill="#2f2e41" id="path11-0" />
   <path d="m 96.281222,540.92882 c 0,0 -17.03196,-9.65354 -9.01598,-17.82677 8.01598,-8.17323 9.01598,-34.01575 9.01598,-34.01575 l -13,-39.15748 10,-7 3,-11.85039 17.999998,-1 v 8.85039 l 18.03125,19.96317 c 6.12754,6.78406 7.9784,16.41079 4.80336,24.98339 l -4.83461,13.05344 c 0,0 14,37 2,42 -12,5 -37.999998,2 -37.999998,2 z" fill="#008243" id="path12-1" />
   <path d="m 186.35823,397.70128 -47.29717,-42.20799 c -7.14407,-6.33488 -7.79992,-17.26225 -1.46504,-24.40632 6.33488,-7.14407 17.26225,-7.79992 24.40632,-1.46504 l 0.0814,0.0729 47.29717,42.20799 c 7.10393,6.37982 7.69061,17.31085 1.31079,24.41478 -6.35141,7.0724 -17.22127,7.69036 -24.33342,1.38368 z" fill="#b0ffc9" isolation="isolate" id="path13-2" />
   <circle cx="109.52531" cy="408.78708" r="17.979219" fill="#ffb6b6" id="circle13" />
   <path d="m 118.8912,405.07842 c -0.13,-2.09003 -0.64001,-4.16003 -1.47998,-6.08002 0.14001,2.12 -0.51001,4.28003 -1.78998,5.97003 -0.03,0.04 -0.06,0.07 -0.08,0.10999 -3.30505,1.60492 -8.87734,0.69739 -14.26001,0 v -20 h 11 c 10.79999,-3.64001 19.69,4.27997 20,20 -5.18146,0.93848 -10.03812,1.45245 -13.39001,0 z" fill="#2f2e41" id="path14-3" />
   <path d="m 109.5712,432.12841 c -1.98999,0.38 -3.96997,0.90997 -5.94995,1.34998 -0.12006,0.03 -0.23004,0.05 -0.35004,0.08 -0.90997,-2.46997 -2.33997,-4.72998 -4.200008,-6.58997 0.89001,1.91998 1.070008,4.16998 0.49005,6.20996 -0.10004,0.35999 -0.22003,0.71002 -0.37006,1.04999 -2.15997,0.22003 -4.31995,0.16003 -6.38995,-0.44 -0.88,-0.25 -1.71002,-0.58997 -2.52002,-0.98999 v -42.71995 h 20.999998 c -8.15002,13.88 -9.31,27.88 -1.71002,42.04999 z" fill="#2f2e41" id="path15-6" />
   <path d="m 105.6033,382.13122 c -0.38373,-1.2016 -1.84692,-1.77435 -3.09338,-1.58087 -1.24646,0.19348 -2.32019,0.95422 -3.342468,1.69318 0.995668,-1.08368 0.48907,-2.99548 -0.72955,-3.82056 -1.21863,-0.82507 -2.84772,-0.76813 -4.25439,-0.33563 -1.40667,0.4325 -2.68787,1.1955 -4.06183,1.72278 -1.37396,0.52728 -2.94043,0.80731 -4.30121,0.24689 0.5296,1.66644 1.55389,3.17224 2.9093,4.27692 -1.60321,-0.28046 -3.34064,0.55066 -4.12842,1.97485 -0.78778,1.42426 -0.56848,3.33771 0.52106,4.54675 1.25067,1.38782 3.36615,1.71301 5.18286,1.2774 1.81665,-0.43561 3.4068,-1.50653 4.93835,-2.57623 1.53162,-1.06976 3.08679,-2.17706 4.879268,-2.70355 l -5.891418,3.70551 c 3.00885,-1.25372 5.928038,-2.72241 8.728088,-4.39111 0.74866,-0.44623 1.50403,-0.9198 2.05115,-1.59827 0.54712,-0.67841 0.85767,-1.60773 0.59259,-2.43805 z" fill="#2f2e41" id="path16-6" />
   <path d="m 77.838842,561.77146 c -0.13573,-4.44108 3.83876,-7.5907 7.9021,-8.40515 5.16288,-1.03483 10.43323,1.6275 14.807738,4.0465 7.81729,4.32278 16.88691,0.0365 25.23963,5.2845 12.32971,7.74683 14.87659,-3.8573 14.10007,-17.55804 -0.57269,-10.10431 1.87463,-20.02782 2.3958,-29.96836 0.50187,-9.57241 3.10865,-19.29814 11.22408,-25.24487 3.4069,-2.49646 7.65079,-3.97382 11.88111,-3.09783 4.51822,0.93561 8.12757,4.18269 12.48125,5.59638 8.10181,2.63076 16.62262,-0.9191 22.69838,-6.33196 7.06711,-6.29604 10.51744,-15.15117 12.94586,-24.08181 2.51795,-9.25989 4.05581,-18.95527 8.67236,-27.48558 3.93941,-7.27909 10.12776,-13.9976 18.65624,-15.38591 8.35653,-1.36032 16.36315,2.73637 23.57555,6.40514 7.42307,3.77593 15.09673,7.86697 23.60149,8.21899 18.22481,0.75435 32.30268,-14.75132 40.20092,-29.4944 9.01498,-16.82763 14.24191,-37.24657 30.25809,-49.14327 6.88411,-5.11347 15.61879,-8.6834 24.31604,-7.25055 8.79021,1.44817 15.21182,7.8238 21.04941,14.05528 5.97945,6.38291 11.91647,12.67126 20.01786,16.34725 7.95048,3.60752 16.83319,4.95884 25.49334,3.81618 4.18252,-0.55186 8.18443,-1.69781 12.05394,-3.36938 1.76751,-0.76354 0.24146,-3.34881 -1.51416,-2.59041 -8.48664,3.6661 -18.14703,4.30142 -27.1005,2.09536 -8.99598,-2.21653 -16.16459,-7.24858 -22.51688,-13.83605 -5.81588,-6.03121 -11.28358,-12.89767 -18.89127,-16.77333 -7.69551,-3.9204 -16.51943,-3.82055 -24.46196,-0.65742 -8.05339,3.20728 -15.02994,8.88033 -20.32012,15.70073 -6.14557,7.92323 -10.23236,17.20961 -14.34048,26.28645 -7.42505,16.40558 -16.94389,35.77933 -35.94003,40.87841 -17.98639,4.82803 -31.29431,-11.08766 -48.07189,-13.61409 -8.24822,-1.24205 -16.0541,1.61361 -21.89485,7.50502 -6.04692,6.09938 -9.54245,14.16582 -11.85171,22.31495 -2.82949,9.98499 -4.28635,20.67954 -9.48211,29.82204 -4.10713,7.22696 -11.71444,13.92944 -20.35876,14.4304 -4.9518,0.28697 -8.7437,-1.99789 -12.97617,-4.20528 -3.8157,-1.99003 -7.79978,-3.01454 -12.0884,-2.17763 -8.0324,1.56751 -14.27311,8.66546 -17.34049,15.90142 -7.56604,17.84832 2.85289,40.78418 -11.9585,56.04566 -2.70714,2.7894 -6.17937,4.88726 -10.0999,5.31405 -5.25229,0.57177 -10.16337,-1.87313 -14.61569,-4.35349 -7.690578,-4.28438 -17.427878,-10.01308 -25.857028,-4.06674 -2.99112,2.11008 -5.00445,5.29452 -4.89038,9.02681 0.0589,1.92602 3.05912,1.9343 3,0 v 0 z" fill="#3f3d56" id="path17-4" />
   <circle cx="377.28122" cy="345.07843" r="9" fill="#008243" id="circle17" />
   <circle cx="293.28122" cy="430.07843" r="9" fill="#008243" id="circle18" />
   <g id="g22" transform="translate(1.8857942e-6,2.9950127e-5)">
      <path d="m 241.96325,157.9858 c 5.51929,-11.45404 19.83836,-17.83312 32.04508,-14.27595 6.87631,2.00383 12.64397,6.60795 18.96675,9.97269 6.32278,3.36473 14.16693,5.45429 20.52715,2.16088 10.93248,-5.66101 10.26586,-22.56247 19.77479,-30.38209 6.32913,-5.20473 15.61599,-4.96147 23.43858,-2.52136 7.82259,2.44011 14.97614,6.74802 22.84954,9.01884 14.65161,4.22577 31.31215,0.67202 42.96425,-9.16442 0.11652,-0.0984 0.23141,-0.19745 0.34469,-0.29725 5.76867,-5.08214 14.80819,-0.894 14.59667,6.79111 l -1.47506,53.59385 H 242.9957 Z" fill="#b0ffc9" id="path18-6" />
      <path d="m 411.34513,148.32817 c 0.63586,-0.25812 0.6358,-1.14911 -1.8e-4,-1.4071 -4.43695,-1.7998 -9.40582,-4.36212 -13.20312,-7.14923 -0.60797,-0.44623 -1.42035,0.16895 -1.16382,0.87811 l 2.16144,5.97443 H 362.1555 v 2 h 36.98401 l -2.16174,5.97662 c -0.25653,0.70917 0.55585,1.32428 1.16382,0.87805 3.79736,-2.78723 8.76642,-5.34985 13.20355,-7.15088 z" fill="#3f3d56" id="path19-1" />
      <path d="m 328.139,138.69553 c 0.34979,-0.59042 -0.18973,-1.2995 -0.8521,-1.11976 -4.62096,1.254 -10.12694,2.2232 -14.83661,2.30414 -0.75404,0.013 -1.02813,0.99443 -0.39459,1.40352 l 5.33753,3.44621 -29.43451,22.39246 1.21093,1.59175 29.43456,-22.39249 1.89816,6.06549 c 0.22521,0.71973 1.24419,0.71741 1.45788,-0.006 1.33465,-4.51745 3.73781,-9.56555 6.17874,-13.68547 z" fill="#3f3d56" id="path20-2" />
      <circle cx="429.3461" cy="118.71675" r="17.14286" fill="#008243" id="circle20" />
      <circle cx="345.3461" cy="118.71675" r="17.14286" fill="#008243" opacity="0.7" id="circle21" />
      <circle cx="269.3461" cy="134.71675" r="17.14286" fill="#008243" opacity="0.25" id="circle22" />
   </g>
   <g id="g23" transform="translate(1.8857942e-6,2.9950127e-5)">
      <path d="m 477.30704,217.0753 -265.99317,-1.9064 c -8.54977,-0.0613 -15.54941,6.83875 -15.61069,15.38851 -0.0613,8.54977 6.83875,15.54941 15.38851,15.61069 l 265.99317,1.9064 c 8.54977,0.0613 15.54941,-6.83875 15.61069,-15.38851 0.0613,-8.54977 -6.83875,-15.54941 -15.38851,-15.61069 z" fill="#b0ffc9" id="path22-8" />
      <circle cx="171.57726" cy="227.43272" r="7" fill="#b0ffc9" id="circle23" />
   </g>
   <g id="g24" transform="translate(1.8857942e-6,2.9950127e-5)">
      <path d="M 477.30704,45.0753 211.31387,43.1689 c -8.54977,-0.06128 -15.54941,6.83875 -15.61069,15.38851 -0.0613,8.54977 6.83875,15.54941 15.38851,15.61069 l 265.99317,1.9064 c 8.54977,0.06128 15.54941,-6.83875 15.61069,-15.38851 0.0613,-8.54977 -6.83875,-15.54941 -15.38851,-15.61069 z" fill="#b0ffc9" id="path23-6" />
      <circle cx="171.57726" cy="55.43272" r="7" fill="#b0ffc9" id="circle24" />
   </g>
   <g id="g25" transform="translate(1.8857942e-6,2.9950127e-5)">
      <path d="m 144.11448,615.65201 h -43.56457 c -3.66186,0 -6.64094,-2.97908 -6.64094,-6.64094 V 565.4465 c 0,-3.66186 2.97908,-6.64094 6.64094,-6.64094 h 43.56457 c 3.66186,0 6.64094,2.97908 6.64094,6.64094 v 43.56457 c 0,3.66186 -2.97908,6.64094 -6.64094,6.64094 z" fill="#ffffff" id="path24-8" />
      <path d="m 144.11448,615.65201 h -43.56457 c -3.66186,0 -6.64094,-2.97908 -6.64094,-6.64094 V 565.4465 c 0,-3.66186 2.97908,-6.64094 6.64094,-6.64094 h 43.56457 c 3.66186,0 6.64094,2.97908 6.64094,6.64094 v 43.56457 c 0,3.66186 -2.97908,6.64094 -6.64094,6.64094 z M 100.54991,559.8681 c -3.08086,0 -5.57839,2.49753 -5.57839,5.57839 v 43.56457 c 0,3.08086 2.49753,5.57839 5.57839,5.57839 h 31.04718 c 9.99402,0 18.09578,-8.10176 18.09578,-18.09578 v -31.04718 c 0,-3.08086 -2.49753,-5.57839 -5.57839,-5.57839 z" fill="#e6e6e6" id="path25-6" />
   </g>
   <path d="m 463.74544,571.485 c 2.06592,0.12937 3.20768,-2.43737 1.64468,-3.93333 l -0.1555,-0.61819 c 0.0205,-0.0495 0.041,-0.099 0.0618,-0.14839 2.08924,-4.9818 9.16992,-4.94742 11.24139,0.0418 1.83859,4.42817 4.17942,8.86389 4.75579,13.54594 0.25838,2.0668 0.14213,4.17236 -0.31648,6.20047 4.30807,-9.41059 6.57515,-19.68661 6.57515,-30.02077 0,-2.59652 -0.14213,-5.19301 -0.43275,-7.78295 -0.239,-2.11854 -0.56839,-4.2241 -0.99471,-6.31034 -2.30575,-11.2772 -7.29852,-22.01825 -14.50012,-30.98962 -3.46197,-1.89248 -6.34906,-4.85065 -8.09295,-8.39652 -0.62649,-1.27891 -1.11739,-2.65462 -1.34991,-4.05618 0.39398,0.0517 1.48556,-5.94866 1.18841,-6.3168 0.54906,-0.83317 1.53178,-1.24733 2.13144,-2.06034 2.98232,-4.04341 7.0912,-3.33741 9.23621,2.15727 4.58224,2.31266 4.62659,6.14806 1.81495,9.83683 -1.78878,2.34682 -2.03456,5.52233 -3.60408,8.03478 0.16151,0.20671 0.32944,0.40695 0.4909,0.61366 2.96106,3.79788 5.52208,7.88002 7.68104,12.16859 -0.61017,-4.76621 0.29067,-10.50822 1.82641,-14.20959 1.74819,-4.21732 5.02491,-7.76915 7.91045,-11.41501 3.46601,-4.37924 10.57337,-2.46806 11.18401,3.08332 0.006,0.0538 0.0117,0.10745 0.0173,0.1612 -0.4286,0.24178 -0.84849,0.49867 -1.25864,0.76992 -2.33949,1.54723 -1.53096,5.17386 1.24107,5.60174 l 0.0628,0.01 c -0.15503,1.54366 -0.41984,3.07444 -0.80734,4.57937 3.70179,14.31579 -4.29011,19.5299 -15.70147,19.76412 -0.25191,0.12916 -0.49738,0.25832 -0.74929,0.38109 1.15617,3.25525 2.07982,6.59447 2.76441,9.97891 0.61359,2.99043 1.03991,6.01317 1.27885,9.04888 0.29715,3.83006 0.27129,7.67959 -0.0517,11.50323 l 0.0194,-0.13562 c 0.82024,-4.21115 3.10671,-8.14462 6.4266,-10.87028 4.94561,-4.06264 11.93282,-5.55869 17.26826,-8.82425 2.56833,-1.57196 5.85945,0.45945 5.41121,3.43708 l -0.0218,0.14261 c -0.79443,0.32289 -1.56947,0.69755 -2.31871,1.11733 -0.4286,0.24184 -0.84848,0.49867 -1.25864,0.76992 -2.33949,1.54729 -1.53096,5.17392 1.24107,5.6018 l 0.0628,0.01 c 0.0452,0.006 0.084,0.0129 0.12911,0.0194 -1.36282,3.23581 -3.26168,6.23922 -5.63854,8.82922 -2.31463,12.49713 -12.25603,13.68282 -22.89022,10.04354 h -0.006 c -1.16259,5.06378 -2.86128,10.01127 -5.0444,14.72621 H 464.197 c -0.0646,-0.20022 -0.12274,-0.40692 -0.18089,-0.60717 1.6664,0.10341 3.34571,0.006 4.98629,-0.29702 -1.33701,-1.64059 -2.67396,-3.29409 -4.01097,-4.93462 -0.0323,-0.0323 -0.0582,-0.0646 -0.084,-0.0969 -0.67817,-0.8396 -1.36282,-1.67283 -2.04099,-2.51246 l -3.6e-4,-10e-4 c -0.0424,-2.57755 0.26652,-5.14662 0.87876,-7.63984 l 5.7e-4,-3.5e-4 z" fill="#b0ffc9" id="path26-4" />
   <path d="m 102.88717,565.54498 c -3.606398,-2.44871 -4.127188,-7.75426 -1.05252,-10.84434 l -13.845548,-32.85942 8.14731,-6.06427 16.159218,39.14786 c 2.14576,2.40847 2.4576,6.05203 0.53812,8.81979 -2.24941,3.24378 -6.70263,4.04981 -9.94657,1.80037 z" fill="#ffb6b6" id="path27-4" />
   <path d="m 92.694112,445.94616 h -2e-5 c -5.91691,-0.49308 -11.24935,3.56558 -12.35019,9.40005 l -8.06268,42.7322 25,51 12.999998,-6 -15.999998,-48 8.693218,-34.77288 c 1.73306,-6.93225 -3.159408,-13.76597 -10.280328,-14.35938 z" fill="#008243" id="path28-0" />
   <path d="m 104.25542,574.92192 c -0.82715,0 -1.5,0.67285 -1.5,1.5 v 1 c 0,0.82715 0.67285,1.5 1.5,1.5 h 35 c 0.82715,0 1.5,-0.67285 1.5,-1.5 v -1 c 0,-0.82715 -0.67285,-1.5 -1.5,-1.5 z" fill="#e6e6e6" id="path29-0" />
   <path d="m 104.25542,585.92192 c -0.82715,0 -1.5,0.67285 -1.5,1.5 v 1 c 0,0.82715 0.67285,1.5 1.5,1.5 h 35 c 0.82715,0 1.5,-0.67285 1.5,-1.5 v -1 c 0,-0.82715 -0.67285,-1.5 -1.5,-1.5 z" fill="#e6e6e6" id="path30-0" />
   <path d="m 104.25542,596.92192 c -0.82715,0 -1.5,0.67285 -1.5,1.5 v 1 c 0,0.82715 0.67285,1.5 1.5,1.5 h 35 c 0.82715,0 1.5,-0.67285 1.5,-1.5 v -1 c 0,-0.82715 -0.67285,-1.5 -1.5,-1.5 z" fill="#e6e6e6" id="path31-2" />
</svg>
